<?xml version="1.0" encoding="UTF-8"?><svg id="a" xmlns="http://www.w3.org/2000/svg" viewBox="0 0 360.02 207"><polygon points="360 99.03 360 72.03 287.92 72.04 288 135 333.04 135.04 333.04 144 279.03 144.03 279.02 108.02 252.03 108.03 252.02 198.02 279 198.02 279.02 171.02 360.02 171.03 360 107.92 315.03 107.91 315.03 99.06 360 99.03" style="fill:#231f20;"/><polygon points="135.02 36.02 134.98 126.02 108.02 126.02 108.02 36.03 135.02 36.02" style="fill:#231f20;"/><path d="M243,108.02l-26.98.02.03,35.97h-9.03v-36l-63,.02-.02,89.98,27-.02v-26.98s72.03.02,72.03.02l-.03-63.01ZM180.02,144h-9.02v-8.96h9.02v8.96Z" style="fill:#231f20;"/><path d="M279,36.03h-71.98S207.02.02,207.02.02h-27.02l-.02,72.02-8.98.02.02-72.02h-27.02l.02,99,135.05-.03-.06-62.97ZM251.75,71.75h-44.25v-8.75h44.25v8.75Z" style="fill:#231f20;"/><path d="M36.02,36.03v35.98h-9v-35.98H.02l-.02,63,98.98.02.03-63.02h-63ZM72,72.03h-9v-9.03h9v9.03Z" style="fill:#231f20;"/><circle cx="229.5" cy="193.37" r="13.37" style="fill:#231f20;"/><circle cx="193.5" cy="193.62" r="13.37" style="fill:#231f20;"/><circle cx="85.62" cy="13.37" r="13.37" style="fill:#231f20;"/><circle cx="49.62" cy="13.62" r="13.37" style="fill:#231f20;"/></svg>